<svg width="auto" height="auto" viewBox="0 0 692 620" fill="none" xmlns="http://www.w3.org/2000/svg">
<path d="M346.352 458.661C332.453 458.661 318.867 462.782 307.311 470.503C295.754 478.225 286.747 489.199 281.428 502.04C276.109 514.88 274.717 529.009 277.428 542.641C280.139 556.272 286.832 568.793 296.659 578.621C306.487 588.449 319.008 595.142 332.639 597.854C346.27 600.566 360.4 599.175 373.24 593.856C386.081 588.538 397.056 579.531 404.778 567.975C412.5 556.419 416.621 542.833 416.622 528.935C416.622 519.707 414.805 510.569 411.273 502.043C407.742 493.517 402.566 485.77 396.041 479.245C389.516 472.719 381.769 467.543 373.243 464.011C364.718 460.479 355.58 458.662 346.352 458.661Z" stroke="white" stroke-width="41" stroke-linecap="round" stroke-linejoin="round"/>
<path d="M367.535 461.923L501.52 45.0179" stroke="white" stroke-width="40" stroke-linecap="round" stroke-linejoin="round"/>
<path d="M458.753 386.905C457.232 385.633 455.618 384.541 454.065 383.33" stroke="white" stroke-width="41" stroke-linecap="round" stroke-linejoin="round"/>
<path d="M343.417 346.31C303.732 346.921 265.438 361.021 234.833 386.291V386.898" stroke="white" stroke-width="41" stroke-linecap="round" stroke-linejoin="round"/>
<path d="M565.638 265.411C546.819 250.002 526.418 236.63 504.78 225.521" stroke="white" stroke-width="41" stroke-linecap="round" stroke-linejoin="round"/>
<path d="M393.598 190.168C346.382 183.557 298.308 186.832 252.425 199.785C206.542 212.737 163.852 235.086 127.063 265.411" stroke="white" stroke-width="41" stroke-linecap="round" stroke-linejoin="round"/>
<path d="M671 137.878C636.05 108.916 597.385 84.758 556.032 66.0447" stroke="white" stroke-width="41" stroke-linecap="round" stroke-linejoin="round"/>
<path d="M444.818 30.7896C370.656 16.0286 294.137 17.9813 220.824 36.5055C147.512 55.0298 79.2488 89.66 21 137.878" stroke="white" stroke-width="41" stroke-linecap="round" stroke-linejoin="round"/>
</svg>
